# xmcd
# 
# Track frame offsets:
#     183
#     11433
#     24708
#     37008
#     51708
#     64008
#     75633
#     89133
#     101958
#     115383
#     129483
#     140208
#     153558
#     173508
#     189783
# 
# Disc length: 2673
# 
# Revision: 1
# Processed by: cddbd v1.5.2PL0 Copyright (c) Steve Scherf et al.
# Submitted via: BonkEnc v1.0.8
# 
DISCID=d50a6f0f
DTITLE=Muddy Waters - CD Collection
DYEAR=1991
DGENRE=Blues
TTITLE0=Sugar Sweet
TTITLE1=You Can't Lose What You Ain't Never Had
TTITLE2=I Can't Be Satisfied
TTITLE3=Baby Pleas Don't Go
TTITLE4=Walkin' Thru the Park
TTITLE5=Sittin' Here Drinkin'
TTITLE6=I Got a Rich Mans Women
TTITLE7=Forty Days and Forty Nights
TTITLE8=Rollin' and Tumblin'
TTITLE9=Rollin' Stone
TTITLE10=She's All Right
TTITLE11=I'm Your Hoochie Coochie Man
TTITLE12=Where's My Woman Been
TTITLE13=Got My Mojo Workin'
TTITLE14=Standing Around Crying
EXTD=
EXTT0=\n
EXTT1=
EXTT2=
EXTT3=
EXTT4=
EXTT5=
EXTT6=
EXTT7=
EXTT8=
EXTT9=
EXTT10=
EXTT11=
EXTT12=
EXTT13=
EXTT14=
PLAYORDER=
